<svg xmlns="http://www.w3.org/2000/svg" version="1.1" xmlns:xlink="http://www.w3.org/1999/xlink" xmlns:svgjs="http://svgjs.dev/svgjs" viewBox="0 0 800 800" opacity="0.3"><defs><linearGradient x1="50%" y1="0%" x2="50%" y2="100%" id="uundulate-grad"><stop stop-color="hsl(180, 69%, 40%)" stop-opacity="1" offset="45%"></stop><stop stop-color="hsl(180, 69%, 60%)" stop-opacity="1" offset="100%"></stop></linearGradient></defs><g stroke-width="2" stroke="url(#uundulate-grad)" fill="none"><path d="M990.3197347760788 -152.9518578813138C1125.5923319938397 52.0515229069656 890.7113092335699 695.4893906240129 651.4907173001143 917.4154327570959C412.2701253666588 1139.341474890179 -22.66650928674835 1117.296525145765 -157.93910650450948 912.2931443574853C-293.21170372227067 707.2897635692059 -237.0383412785941 155.32524710643838 2.1822506548613774 -66.60079502664473C241.40284258831696 -288.52683715972773 855.0471375583174 -357.9552386695932 990.3197347760788 -152.9518578813138C1125.5923319938397 52.0515229069656 890.7113092335699 695.4893906240129 651.4907173001143 917.4154327570959 "></path><path d="M969.2368849256773 -133.20357070321438C1099.67831795709 64.47826077119794 873.1859031525439 684.9362046412077 642.5089037881403 898.9363166981091C411.8319044237369 1112.9364287550106 -7.571278992048633 1091.6787986443255 -138.01271202346118 893.9969671699132C-268.4541450548737 696.3151356955009 -214.28697412704275 164.06363767783228 16.39002523736076 -49.936474379069296C247.0670246017644 -263.93658643597075 838.7954518942649 -330.8854021776267 969.2368849256773 -133.20357070321438C1099.67831795709 64.47826077119794 873.1859031525439 684.9362046412077 642.5089037881403 898.9363166981091 "></path><path d="M948.154004557698 -113.45531404269315C1073.764273402762 76.90496811785204 855.6604665539398 674.3829881408244 633.5270597585884 880.4571701215446C411.3936529632367 1086.5313521022645 7.52392078507296 1066.0610416253085 -118.086348059991 875.7007594647632C-243.69661690505495 685.340477304218 -191.53563749306954 172.80199773164816 30.597769302282018 -33.27218424907187C252.73117609763358 -239.34636622979184 822.5437357126341 -303.81559620323833 948.154004557698 -113.45531404269315C1073.764273402762 76.90496811785204 855.6604665539398 674.3829881408244 633.5270597585884 880.4571701215446 "></path><path d="M927.071154707297 -93.70699634701566C1047.850259366012 89.33173649966238 838.1350604729139 663.8298326755973 624.5452462466144 861.9780845801358C410.9554320203148 1060.126336484674 22.619151079772678 1040.4433456414474 -98.15995357894263 857.4046127947693C-218.939058237658 674.3658799480913 -168.78427034151815 181.54041882062018 44.8055438847814 -16.607833083918194C258.3953581110809 -214.75608498845668 806.2920500485816 -276.7457291936937 927.071154707297 -93.70699634701566C1047.850259366012 89.33173649966238 838.1350604729139 663.8298326755973 624.5452462466144 861.9780845801358 "></path><path d="M905.9883048568956 -73.9587091689163C1021.9362453292624 101.75847436389472 820.609654391888 653.2766466927922 615.5634327346404 843.498968521149C410.51721107739286 1033.7212903495058 37.714381374472396 1014.825619140008 -78.23355909789433 839.1084356071972C-194.18149957026105 663.3912520743861 -146.03290318996682 190.27880939201407 59.01331846728078 0.0564875636571287C264.0595401245283 -190.1658342646997 790.0403643845289 -249.6758927017272 905.9883048568956 -73.9587091689163C1021.9362453292624 101.75847436389472 820.609654391888 653.2766466927922 615.5634327346404 843.498968521149 "></path><path d="M884.9054550064943 -54.210452508395065C996.0222312925125 114.18518171054882 803.084248310862 642.7234301924091 606.5816192226666 825.0198219445842C410.0789901344708 1007.3162136967596 52.809611669172114 989.207862120991 -58.30716461684597 820.8122279020472C-169.4239409028641 652.4165936831032 -123.28153603841548 199.01716944582995 73.22109304978017 16.720777693654554C269.72372213797576 -165.57561405852078 773.7886787204761 -222.60608672733883 884.9054550064943 -54.210452508395065C996.0222312925125 114.18518171054882 803.084248310862 642.7234301924091 606.5816192226666 825.0198219445842 "></path><path d="M863.8226356736711 -34.46219584787377C970.1082477733407 126.61188905720292 785.5588727474142 632.1702136920258 597.5998362282708 806.5406753680195C409.640799709127 980.9111370440132 67.90487248144996 963.5901051019734 -38.380739618219536 802.5160201968968C-144.66635171788903 641.4419352918203 -100.53013836928602 207.75552949964572 87.42889814985756 33.385067823651866C275.3879346690012 -140.98539385234187 757.5370235740015 -195.53628075295046 863.8226356736711 -34.46219584787377C970.1082477733407 126.61188905720292 785.5588727474142 632.1702136920258 597.5998362282708 806.5406753680195 "></path><path d="M842.73978582327 -14.713939187352537C944.1942337365908 139.03859640385713 768.0334666663884 621.6169971916424 588.6180227162967 788.0615287914547C409.2025787662051 954.506060391267 83.00010277614967 937.9723480829564 -18.454345137171174 784.2198124917468C-119.90879305049208 630.4672769005374 -77.77877121773463 216.4938895534616 101.63667273235706 50.04935795364929C281.0521166824486 -116.39517364616302 741.2853379099492 -168.4664747785621 842.73978582327 -14.713939187352537C944.1942337365908 139.03859640385713 768.0334666663884 621.6169971916424 588.6180227162967 788.0615287914547 "></path><path d="M821.6569359728687 5.034378508324949C918.2802196998409 151.46536478566736 750.5080605853623 611.0638417264154 579.6362092043228 769.582443250046C408.76435782328304 928.1010447736769 98.09533307084939 912.3546520990953 1.4720493438771314 765.9236658217528C-95.15123438309513 619.4926795444103 -55.027404066183294 225.23231064243362 115.84444731485632 66.71370911880285C286.71629869589606 -91.80489240482785 725.0336522458965 -141.39660776901746 821.6569359728687 5.034378508324949C918.2802196998409 151.46536478566736 750.5080605853623 611.0638417264154 579.6362092043228 769.582443250046 "></path><path d="M800.5740861224676 24.78263516884624C892.366205663091 163.89207213232157 732.9826545043366 600.5106252260321 570.6543956923488 751.1032966734813C408.3261368803611 901.6959681209305 113.19056336554911 886.736895080078 21.398443824925494 747.6274581166026C-70.39367571569818 608.5180211531274 -32.27603691463196 233.9706706962495 130.0522218973557 83.37799924880028C292.3804807093434 -67.21467219864894 708.7819665818438 -114.32680179462909 800.5740861224676 24.78263516884624C892.366205663091 163.89207213232157 732.9826545043366 600.5106252260321 570.6543956923488 751.1032966734813 "></path><path d="M779.4912362720661 44.53095286452373C866.4521916263413 176.31884051413192 715.4572484233104 589.9574697608051 561.6725821803749 732.6242111320728C407.8879159374392 875.2909525033406 128.28579366024883 861.119199096217 41.3248383059738 729.3313114466087C-45.63611704830123 597.5434237970006 -9.524669763080567 242.70909178522152 144.2599964798551 100.04235041395384C298.0446627227908 -42.624390957313835 692.5302809177911 -87.25693478508447 779.4912362720661 44.53095286452373C866.4521916263413 176.31884051413192 715.4572484233104 589.9574697608051 561.6725821803749 732.6242111320728 "></path><path d="M758.4084169392431 64.27920952504496C840.5382081071696 188.74554786078602 697.9318728598628 579.4042532604218 552.690799185979 714.145064555508C407.44972551209526 848.885875850594 143.38105447252667 835.5014420772 61.25126330460023 711.0351037414587C-20.878527863326156 586.5687654057176 13.226727906048893 251.44745183903729 158.4678015799326 116.70664054395121C303.70887525381636 -18.034170751134923 676.2786257713167 -60.187128810696095 758.4084169392431 64.27920952504496C840.5382081071696 188.74554786078602 697.9318728598628 579.4042532604218 552.690799185979 714.145064555508 "></path><path d="M737.3255670888418 84.02749670314438C814.6241940704197 201.17228572501836 680.4064667788368 568.8510672776167 543.7089856740051 695.6659484965213C407.0115045691733 822.4808297154259 158.4762847672264 809.8837155757606 81.17765778564859 692.7389265538867C3.879030804070794 575.5941375320127 35.97809505760023 260.1858424104313 172.67557616243198 133.3709611915267C309.3730572672637 6.556079972622115 660.026940107264 -33.117292318729596 737.3255670888418 84.02749670314438C814.6241940704197 201.17228572501836 680.4064667788368 568.8510672776167 543.7089856740051 695.6659484965213 "></path><path d="M716.2427172384406 103.77575336366561C788.7101800336698 213.59899307167245 662.8810606978109 558.2978507772334 534.7271721620311 677.1868019199565C406.5732836262514 796.0757530626797 173.5715150619261 784.2659585567435 101.1040522666969 674.4427188487366C28.636589471467687 564.6194791407297 58.72946220915162 268.9242024642472 186.88335074493136 150.03525132152402C315.0372392807111 31.14630017880097 643.7752544432115 -6.047486344341223 716.2427172384406 103.77575336366561C788.7101800336698 213.59899307167245 662.8810606978109 558.2978507772334 534.7271721620311 677.1868019199565 "></path><path d="M695.1598673880394 123.5240710593431C762.7961659969199 226.0257614534828 645.3556546167849 547.7446953120065 525.7453586500571 658.707716378548C406.13506268332935 769.6707374450893 188.66674535662582 758.6482625728825 121.03044674774526 656.1465721787426C53.39414813886464 553.644881784603 81.48082936070296 277.6626235532192 201.0911253274307 166.69960248667763C320.70142129415854 55.73658142013613 627.5235687791587 21.0223806652034 695.1598673880394 123.5240710593431C762.7961659969199 226.0257614534828 645.3556546167849 547.7446953120065 525.7453586500571 658.707716378548 "></path><path d="M674.0770175376381 143.2723277198644C736.8821519601701 238.45246880013696 627.830248535759 537.1914788116231 516.7635451380833 640.2285698019832C405.6968417404074 743.2656607923432 203.76197565132554 733.0305055538652 140.95684122879356 637.8503644735925C78.15170680626159 542.6702233933199 104.23219651225429 286.40098360703496 215.29889990993007 183.363892616675C326.36560330760585 80.32680162631505 611.2718831151061 48.09218663959177 674.0770175376381 143.2723277198644C736.8821519601701 238.45246880013696 627.830248535759 537.1914788116231 516.7635451380833 640.2285698019832 "></path><path d="M652.9941676872369 163.02061489796375C710.9681379234203 250.87920666436924 610.304842454733 526.638292828818 507.78173162610926 621.7494537429964C405.2586207974855 716.8606146571748 218.85720594602526 707.4127790524259 160.88323570984193 619.5541872860205C102.90926547365854 531.6955955196149 126.98356366380563 295.13937417842885 229.50667449242945 200.02821326425044C332.02978532105317 104.91705235007203 595.0201974510535 75.16202313155827 652.9941676872369 163.02061489796375C710.9681379234203 250.87920666436924 610.304842454733 526.638292828818 507.78173162610926 621.7494537429964 "></path><path d="M631.9113178368356 182.7689020760631C685.0541238866704 263.30594452860146 592.7794363737071 516.0851068460129 498.7999181141354 603.2703376840097C404.82039985456345 690.4555685220066 233.95243624072498 681.7950525509867 180.80963019089023 601.2580100984484C127.66682414105549 520.7209676459102 149.73493081535702 303.87776474982286 243.71444907492878 216.69253391182593C337.6939673345006 129.50730307382906 578.7685117870008 102.23185962352477 631.9113178368356 182.7689020760631C685.0541238866704 263.30594452860146 592.7794363737071 516.0851068460129 498.7999181141354 603.2703376840097 "></path><path d="M610.8284679864344 202.51718925416247C659.1401098499205 275.7326823928337 575.2540302926811 505.5319208632077 489.8181046021614 584.791221625023C404.3821789116415 664.0505223868385 249.0476665354247 656.1773260495477 200.7360246719386 582.9618329108764C152.42438280845244 509.74633977220515 172.48629796690835 312.6161553212168 257.92222365742816 233.35685455940143C343.35814934794803 154.0975537975861 562.5168261229483 129.30169611549127 610.8284679864344 202.51718925416247C659.1401098499205 275.7326823928337 575.2540302926811 505.5319208632077 489.8181046021614 584.791221625023 "></path><path d="M589.745618136033 222.26547643226183C633.2260958131707 288.15942025706596 557.7286242116552 494.9787348804025 480.8362910901874 566.3121055660364C403.9439579687196 637.6454762516703 264.1428968301244 630.5595995481085 220.6624191529869 564.6656557233043C177.18194147584938 498.77171189850037 195.2376651184597 321.35454589261076 272.12999823992755 250.02117520697692C349.0223313613954 178.68780452134308 546.2651404588955 156.37153260745777 589.745618136033 222.26547643226183C633.2260958131707 288.15942025706596 557.7286242116552 494.9787348804025 480.8362910901874 566.3121055660364 "></path><path d="M568.6627682856318 242.01376361036125C607.3120817764208 300.58615812129824 540.2032181306294 484.4255488975974 471.8544775782135 547.8329895070497C403.50573702579754 611.240430116502 279.23812712482413 604.9418730466693 240.5888136340352 546.3694785357325C201.93950014324633 487.79708402479537 217.98903227001108 330.0929364640047 286.3377728224269 266.6854958545524C354.6865133748428 203.27805524510012 530.0134547948429 183.44136909942426 568.6627682856318 242.01376361036125C607.3120817764208 300.58615812129824 540.2032181306294 484.4255488975974 471.8544775782135 547.8329895070497 "></path><path d="M547.5799336940197 261.76203552967155C581.3980829984599 313.0128807267414 522.6778273083925 473.8723476560033 462.87267932502857 529.353858189274C403.0675313416647 584.8353687225447 294.3333726783129 579.3241312864412 260.51522337387263 528.0732860893713C226.69707406943235 476.82244089230153 240.74041468035148 338.8313117766096 300.5455626637154 283.34980124333885C360.35071064707927 227.86829071006804 513.7617843895794 210.5111903326017 547.5799336940197 261.76203552967155C581.3980829984599 313.0128807267414 522.6778273083925 473.8723476560033 462.87267932502857 529.353858189274 "></path><path d="M526.4970838436184 281.5102921901928C555.4840689617101 325.43958807339556 505.1524212273665 463.31913115561997 453.8908658130547 510.8747116127091C402.62931039874275 558.4302920697983 309.42860297301263 553.7063742674238 280.44161785492093 509.7770783842211C251.4546327368293 465.8477825010184 263.4917818319028 347.56967183042536 314.75333724621476 300.01409137333616C366.0148926605266 252.45851091624695 497.51009872552675 237.58099630699007 526.4970838436184 281.5102921901928C555.4840689617101 325.43958807339556 505.1524212273665 463.31913115561997 453.8908658130547 510.8747116127091 "></path><path d="M505.4142339932172 301.2585793682922C529.5700549249602 337.8663259376278 487.62701514634057 452.7659451728148 444.9090523010807 492.3955955537224C402.19108945582076 532.0252459346302 324.52383326771235 528.0886477659848 300.3680123359693 491.48090119664914C276.2121914042262 454.8731546273135 286.2431489834542 356.30806240181937 328.9611118287141 316.67841202091165C371.679074673974 277.048761640004 481.25841306147413 264.65083279895657 505.4142339932172 301.2585793682922C529.5700549249602 337.8663259376278 487.62701514634057 452.7659451728148 444.9090523010807 492.3955955537224 "></path><path d="M484.331384142816 321.0068970639697C503.6560408882103 350.2930943194382 470.1016090653147 442.2127897075878 435.92723878910675 473.9165100123139C401.7528685128988 505.62023031704007 339.61906356241207 502.47095178212373 320.2944068170176 473.1847545266553C300.96975007162314 443.89855727118675 308.99451613500554 365.0464834907914 343.16888641121346 333.34276318606527C377.3432566874214 301.6390428813391 465.00672739742146 291.7206998085012 484.331384142816 321.0068970639697C503.6560408882103 350.2930943194382 470.1016090653147 442.2127897075878 435.92723878910675 473.9165100123139 "></path><path d="M463.24853429241466 340.7551537244909C477.74202685146054 362.7198016660923 452.5762029842887 431.6595732072045 426.9454252771328 455.4373634357491C401.31464756997684 479.21515366429367 354.7142938571118 476.85319476310644 340.22080129806596 454.8885468215051C325.7273087390201 432.92389887990373 331.7458832865569 373.7848435446072 357.37666099371285 350.00705331606264C383.00743870086876 326.229263087518 448.75504173336884 318.79050578288957 463.24853429241466 340.7551537244909C477.74202685146054 362.7198016660923 452.5762029842887 431.6595732072045 426.9454252771328 455.4373634357491 "></path><path d="M442.1656997008025 360.50345616137935C451.8280280734997 375.1465547891136 435.0508121620519 421.1064024831884 417.9636270239479 436.9582626355515C400.8764418858439 452.81012278791457 369.80953941060056 451.2354835204564 360.14721103790333 436.5923848927222C350.4848826652061 421.9492862649879 354.4972656968973 382.5232493747902 371.58445083500123 366.67138922242714C388.67163597310525 350.8195290700641 432.50337132810523 345.86035753364513 442.1656997008025 360.50345616137935C451.8280280734997 375.1465547891136 435.0508121620519 421.1064024831884 417.9636270239479 436.9582626355515 "></path><path d="M421.08284985040126 380.25171282190064C425.91401403674985 387.5732621357677 417.52540608102595 410.55318598280513 408.98181351197394 418.4791160589867C400.438220942922 426.4050461351682 384.9047697053003 425.61772650143917 380.0736055189517 418.296177187572C375.24244133260305 410.9746278737049 377.24863284844866 391.26160942860605 385.7922254175006 383.3356793524245C394.3358179865526 375.40974927624296 416.2516856640526 372.9301635080335 421.08284985040126 380.25171282190064C425.91401403674985 387.5732621357677 417.52540608102595 410.55318598280513 408.98181351197394 418.4791160589867 "></path></g></svg>