<svg xmlns="http://www.w3.org/2000/svg" version="1.1" xmlns:xlink="http://www.w3.org/1999/xlink" xmlns:svgjs="http://svgjs.dev/svgjs" viewBox="0 0 800 800" opacity="0.16"><defs><linearGradient x1="50%" y1="0%" x2="50%" y2="100%" id="uundulate-grad"><stop stop-color="hsl(180, 69%, 40%)" stop-opacity="1" offset="45%"></stop><stop stop-color="hsl(180, 69%, 60%)" stop-opacity="1" offset="100%"></stop></linearGradient></defs><g stroke-width="1" stroke="url(#uundulate-grad)" fill="none"><path d="M738.3493315769422 234.81935597797826C746.6426504667752 315.41892841191907 724.1693306794862 355.80163601455456 659.9101421052321 462.62024521974195C595.650953530978 569.4388544249296 503.8039323569475 759.9152393871827 429.905226420522 747.5486801628772C356.00652048409654 735.1821209385714 381.81455342460595 532.0452847094618 305.19635361039 403.26076094307473C228.5781537961741 274.47623717668773 37.74395713986536 200.22707432637776 62.13786731228487 129.38296608422047C86.53177748470438 58.53885784206324 306.0445507459733 74.38418066142765 422.28712243800396 63.20904138072058C538.5296941300346 52.033902100013506 554.2559178634204 39.99014866239804 620.1022114340326 75.74229753682675C685.9485050046447 111.49444641125547 730.056012687109 154.21978354403745 738.3493315769422 234.81935597797826C746.6426504667752 315.41892841191907 724.1693306794862 355.80163601455456 659.9101421052321 462.62024521974195 "></path><path d="M729.890656270917 238.94880799161479C737.9766421885045 317.533391114707 716.0651553958974 356.9065310272765 653.4124465359997 461.0546750023343C590.759737676102 565.2028189773921 501.20889203142224 750.9172943155891 429.1576537434074 738.859899071891C357.1064154553926 726.802503828193 382.2692475723892 528.7440885048111 307.56650275352877 403.17917783258383C232.86375793466823 277.61426716035646 46.80041619476714 205.22133338130425 70.58447861287618 136.14832784520092C94.36854103098523 67.0753223090976 308.39349496072236 82.52451205797786 421.7300023604523 71.62875125928849C535.0665097601822 60.732990460599126 550.3995779002333 48.99033085892404 614.5997141315802 83.84867601149199C678.799850362927 118.70702116406 721.8046703533297 160.36422486852246 729.890656270917 238.94880799161479C737.9766421885045 317.533391114707 716.0651553958974 356.9065310272765 653.4124465359997 461.0546750023343 "></path><path d="M721.4319199297357 243.0783820755638C729.3105728750772 319.64797588780755 707.9609190771524 358.0115481103112 646.9146899316111 459.4892268552393C585.8684607860697 560.9669056001674 498.61379067074085 741.9194713143081 428.4100200311366 730.1712400512179C358.2062493915323 718.4230087881273 382.7238806850163 525.4430143704731 309.93659086151115 403.09771679240544C237.149301038006 280.7524192143378 55.85681421451267 210.21571450654324 79.03102887831125 142.91381167649382C102.20524354210983 75.61190884644446 310.74237814031517 90.66496552484062 421.1728212477444 80.0485832081689C531.6032643551735 69.43220089149719 546.5431769018901 57.99063512576254 609.0971557939715 91.95517655646978C671.6511346860531 125.91971798717702 713.5532669843942 166.50878826331996 721.4319199297357 243.0783820755638C729.3105728750772 319.64797588780755 707.9609190771524 358.0115481103112 646.9146899316111 459.4892268552393 "></path><path d="M712.9731225533981 247.20789512435647C720.6444425264938 321.76249962575173 699.8566217232511 359.1165041581895 640.4168722920662 457.923717672988C580.9771228608811 556.7309311877864 496.018628274903 732.9215872778707 427.6623252837094 721.482519995388C359.30602229251576 710.0434527129052 383.17845276248704 522.1418792009788 312.3066179343373 403.0161947170707C241.43478310618764 283.8905102331628 64.913151199102 215.21003459662597 87.47751810859006 149.67923447263053C110.04188501807812 84.14843434863508 313.09120028475184 98.80535795654714 420.6155790998803 88.46835412189307C528.1399579150086 78.13135028723906 542.6867148683905 66.99087835744479 603.5945364212067 100.06161606629132C664.5023579740229 133.13235377513786 705.3018025803025 172.6532906229612 712.9731225533981 247.20789512435647C720.6444425264938 321.76249962575173 699.8566217232511 359.1165041581895 640.4168722920662 457.923717672988 "></path><path d="M704.514447247373 251.33740817314924C711.9784342482228 323.877023363696 691.7524464396624 360.22146020606783 633.9191767228339 456.3582084907365C576.0859070060051 552.4949567754053 493.42358794937775 723.9237032414334 426.9147526065948 712.7937999395582C360.40591726381183 701.6638966376831 383.6331469102704 518.8407440314843 314.67676707747603 402.93467264173603C245.72038724468172 287.02860125198777 73.96961025400378 220.2043546867087 95.92412940918138 156.44465726876717C117.87864856435897 92.68495985082563 315.4401444995009 106.9457503882536 420.0584590223285 96.88812503561724C524.6767735451562 86.83049968298087 538.8303749052034 75.99112158912698 598.0920391187543 108.1680555761128C657.3537033323053 140.34498956309864 697.0504602465231 178.79779298260246 704.514447247373 251.33740817314924C711.9784342482228 323.877023363696 691.7524464396624 360.22146020606783 633.9191767228339 456.3582084907365 "></path><path d="M696.0557109061916 255.4669212219419C703.3123649347956 325.9915471016402 683.6482101209175 361.32641625394604 627.4214201184452 454.7926993084852C571.1946301159729 548.2589823630242 490.82848658869625 714.925819204996 426.16711889432395 704.1050798837284C361.50575119995165 693.284340562461 384.0877800228974 515.53960886199 317.0468551854585 402.8531505664014C250.00593034801955 290.16669227081275 83.02600827374937 225.19867477679145 104.37067967461644 163.21008006490388C125.71535107548351 101.22148535301625 317.7890276790938 115.08614281996012 419.5012779096206 105.30789594934146C521.2135281401474 95.52964907872274 534.9739739068601 84.99136482080922 592.5894807811457 116.27449508593435C650.2049876554313 147.55762535105941 688.7990568775876 184.9422953422437 696.0557109061916 255.4669212219419C703.3123649347956 325.9915471016402 683.6482101209175 361.32641625394604 627.4214201184452 454.7926993084852 "></path><path d="M687.596913529854 259.5964342707347C694.6462345862121 328.1060708395844 675.5439127670163 362.43137230182447 620.9236024789003 453.22719012623384C566.3032921907844 544.0230079506432 488.2333241928585 705.9279351685585 425.41942414689674 695.4163598278986C362.6055241009351 684.9047844872389 384.54235210036813 512.2384736924956 319.41688225828466 402.7716284910666C254.29141241620113 293.3047832896377 92.08234525833865 230.1929948668742 112.81716890489525 169.97550286104052C133.55199255145186 109.75801085520686 320.13784982353036 123.22653525166663 418.9440357617565 113.72766686306562C517.7502216999826 104.22879847446461 531.1175118733605 93.99160805249147 587.0868614083809 124.38093459575589C643.0562109434011 154.77026113902025 680.5475924734958 191.08679770188496 687.596913529854 259.5964342707347C694.6462345862121 328.1060708395844 675.5439127670163 362.43137230182447 620.9236024789003 453.22719012623384 "></path><path d="M679.1382382238289 263.72594731952745C685.9802263079413 330.2205945775286 667.4397374834276 363.5363283497028 614.425906909668 451.66168094398245C561.4120763359083 539.7870335382622 485.63828386733326 696.9300511321212 424.67185146978227 686.7276397720691C363.70541907223117 676.5252284120169 384.9970462481515 508.93733852300124 321.7870314014233 402.690106415732C258.5770165546952 296.4428743084627 101.13880431324048 235.18731495695693 121.26378020548657 176.74092565717723C141.3887560977327 118.29453635739748 322.4867940382795 131.3669276833731 418.38691568420484 122.14743777678979C514.2870373301301 112.92794787020642 527.2611719101734 102.99185128417372 581.5843641059284 132.48737410557737C635.9075563016834 161.98289692698108 672.2962501397166 197.2313000615262 679.1382382238289 263.72594731952745C685.9802263079413 330.2205945775286 667.4397374834276 363.5363283497028 614.425906909668 451.66168094398245 "></path><path d="M670.6795018826475 267.8554603683201C677.3141569945141 332.33511831547276 659.3355011646827 364.6412843975811 607.9281503052794 450.09617176173106C556.520799445876 535.5510591258811 483.04318250665176 687.9321670956838 423.9242177575113 678.0389197162392C364.805253008371 668.1456723367947 385.4516793607786 505.63620335350697 324.1571195094058 402.60858434039733C262.86255965803304 299.5809653272877 110.19520233298601 240.18163504703972 129.71033047092163 183.50634845331388C149.22545860885725 126.83106185958809 324.83567721787233 139.5073201150796 417.82973457149694 130.56720869051395C510.82379192512144 121.6270972659483 523.4047709118302 111.99209451585597 576.0818057683198 140.59381361539891C628.7588406248095 169.19553271494186 664.044846770781 203.37580242116746 670.6795018826475 267.8554603683201C677.3141569945141 332.33511831547276 659.3355011646827 364.6412843975811 607.9281503052794 450.09617176173106 "></path><path d="M662.2207045063099 271.985003934691C668.6480266459306 334.44967257099506 651.2312038107815 365.74627096303755 601.4303326657346 448.5306930970578C551.6294615206875 531.3151152310782 480.448020110814 678.9343135768246 423.1765230100842 669.3502301779877C365.90502590935444 659.7661467791506 385.9062514382492 502.3350987015907 326.52714658223204 402.5270927826407C267.1480417262146 302.7190868636908 119.2515393175753 245.17598565470053 138.15681970120045 190.2718017670287C157.0621000848256 135.36761787935683 327.184499362309 147.64774306436425 417.2724924236327 138.98701012181624C507.3604854849566 130.3262771792683 519.5483088783305 120.99236826511628 570.579186395555 148.70028364279852C621.6100639127793 176.40819902048077 655.7933823666892 209.52033529838684 662.2207045063099 271.985003934691C668.6480266459306 334.44967257099506 651.2312038107815 365.74627096303755 601.4303326657346 448.5306930970578 "></path><path d="M653.7620597178629 276.11451698348367C659.9820488852378 336.56419630893936 643.1270590447708 366.85122701091586 594.9326676140803 446.9651839148065C546.7382761833898 527.0791408186972 477.8530103028669 669.9364295403872 422.42898085054776 660.6615101221579C367.0049513982286 651.3865907039286 386.3609761036107 499.0339635320963 328.8973262429488 402.44557070730605C271.4336763822869 305.85717788251577 128.30802889005525 250.17030574478326 146.6034615193699 197.03722456316535C164.89889414868452 143.90414338154744 329.5334740946362 155.7881354960707 416.71540286365916 147.4067810355404C503.89733163268215 139.0254265750101 515.6919994327216 129.99261149679853 565.0767196106807 156.80672315262007C614.4614397886398 183.6208348084416 647.542070550488 215.6648376580281 653.7620597178629 276.11451698348367C659.9820488852378 336.56419630893936 643.1270590447708 366.85122701091586 594.9326676140803 446.9651839148065 "></path><path d="M645.3032776003143 280.24403003227644C651.3159337954434 338.67872004688354 635.0227769496587 367.9561830587943 588.4348652333244 445.3996747325551C541.8469535169903 522.8431664063162 475.2578631658182 660.9385455039499 421.68130136190973 651.9727900663281C368.10473955800126 643.0070346287066 386.8155634398705 495.73282836260205 331.267368574564 402.3640486319714C275.71917370925746 308.99526890134075 137.3643811334336 255.16462583486606 155.04996600843776 203.80264735930206C172.73555088344193 152.44066888373806 331.8823114978618 163.92852792777722 416.1581759745841 155.82655194926457C500.4340404513064 147.72457597075197 511.8355526580111 138.99285472848078 559.5741154967048 164.91316266244155C607.3126783353987 190.83347059640238 639.2906214051852 221.80934001766934 645.3032776003143 280.24403003227644C651.3159337954434 338.67872004688354 635.0227769496587 367.9561830587943 588.4348652333244 445.3996747325551 "></path><path d="M636.8445412591329 284.3735735986473C642.6498644820161 340.79327430240585 626.9185406309136 369.0611696242506 581.9371086289359 443.834196067882C536.9556766269579 518.6072225115131 472.6627618051367 651.9406919850906 420.9336676496389 643.2841005280766C369.20457349414096 634.6275090710626 387.2701965524976 492.4317237106857 333.6374566825465 402.28255707421476C280.00471681259535 312.13339043774386 146.42077915317918 260.1589764425269 163.49651627387283 210.56810067301683C180.57225339456653 160.97722490350674 334.2311946774547 172.06895087706187 415.6009948618762 164.24635338056692C496.97079504629767 156.42375588407197 507.97915165966776 147.99312847774115 554.0715571590962 173.01963268984122C600.1639626585247 198.04613690194128 631.0392180362498 227.95387289488872 636.8445412591329 284.3735735986473C642.6498644820161 340.79327430240585 626.9185406309136 369.0611696242506 581.9371086289359 443.834196067882 "></path><path d="M628.3858049179516 288.50308664744C633.983795168589 342.90779804035014 618.8143043121688 370.16612567212894 575.4393520245474 442.2686868856306C532.0643997369257 514.3712480991321 470.0676604444552 642.9428079486531 420.18603393736794 634.5953804722467C370.3044074302808 626.2479529958404 387.7248296651246 489.1305885411914 336.00754479052887 402.2010349988801C284.2902599159331 315.27148145656884 155.4771771729247 265.15329653260966 171.9430665393079 217.33352346915353C188.40895590569107 169.51375040569735 336.58007785704757 180.20934330876833 415.0438137491683 172.66612429429108C493.50754964128896 165.12290527981378 504.1227506613245 156.9933717094234 548.5689988214876 181.12607219966276C593.0152469816508 205.25877268990212 622.7878146673143 234.09837525452997 628.3858049179516 288.50308664744C633.983795168589 342.90779804035014 618.8143043121688 370.16612567212894 575.4393520245474 442.2686868856306 "></path><path d="M619.9270838355594 292.6325996962328C625.3177411139509 345.0223217782943 610.7100832522128 371.27108172000726 568.9416106789477 440.7031777033792C527.1731381056825 510.13527368675113 467.4725743425628 633.9449239122157 419.43841548388616 625.906660416417C371.40425662520954 617.8683969206184 388.1794780365407 485.829453371697 338.3776481573004 402.11951292354547C288.57581827806007 318.40957247539393 164.53359045145936 270.1476166226924 180.38963206353202 224.09894626529018C196.24567367560473 178.05027590788796 338.9289762954295 188.34973574047484 414.48664789524946 181.08589520801524C490.04431949506943 173.82205467555565 500.2663649217702 165.9936149411056 543.066455742668 189.23251170948424C585.8665465635659 212.4714084778629 614.5364265571677 240.24287761417122 619.9270838355594 292.6325996962328C625.3177411139509 345.0223217782943 610.7100832522128 371.27108172000726 568.9416106789477 440.7031777033792 "></path><path d="M611.468332235589 296.7621127450255C616.6516565417346 347.1368455162385 602.6058316746788 372.3760377678857 562.44383881577 439.1376685211278C522.2818459568612 505.8992992743699 464.8774577230922 624.9470398757783 418.69076651282626 617.2179403605874C372.5040753025603 609.4888408453962 388.6340958903787 482.5283182022026 340.74772100649375 402.0379908482107C292.86134612260884 321.5476634942189 173.58997321241583 275.14193671277513 188.83616707017802 230.86436906142688C204.08236092794027 186.58680141007858 341.2778442162333 196.49012817218136 413.9294515237525 189.5056661217394C486.58105883127155 182.52120407129752 496.4099486646378 174.99385817278784 537.5638821462703 197.33895121930578C578.717815627903 219.68404426582373 606.285007929443 246.38737997381247 611.468332235589 296.7621127450255C616.6516565417346 347.1368455162385 602.6058316746788 372.3760377678857 562.44383881577 439.1376685211278 "></path><path d="M603.0095958944075 300.8916257938182C607.9855872283074 349.2513692541827 594.5015953559339 373.480993815764 555.9460822113814 437.5721593388764C517.3905690668289 501.66332486198894 462.2823563624106 615.9491558393411 417.9431328005554 608.5292203047576C373.6039092387001 601.1092847701741 389.0887290030057 479.22718303270835 343.11780911447624 401.95646877287606C297.14688922594667 324.6857545130439 182.6463712321614 280.1362568028579 197.28271733561309 237.62979185756353C211.91906343906481 195.1233269122692 343.62672739582615 204.63052060388782 413.3722704110446 197.92543703546357C483.11781342626296 191.22035346703933 492.55354766629443 183.9941014044701 532.0613238086617 205.44539072912733C571.5690999510291 226.8966800537845 598.0336045605077 252.53188233345372 603.0095958944075 300.8916257938182C607.9855872283074 349.2513692541827 594.5015953559339 373.480993815764 555.9460822113814 437.5721593388764 "></path><path d="M594.5508595532261 305.021138842611C599.3195179148802 351.3658929921269 586.3973590371888 374.5859498636423 549.4483256069927 436.006650156625C512.4992921767966 497.42735044960796 459.6872550017292 606.9512718029036 417.1954990882846 599.8405002489278C374.7037431748398 592.729728694952 389.5433621156328 475.92604786321385 345.4878972224586 401.8749466975414C301.4324323292845 327.82384553186887 191.70276925190694 285.13057689294067 205.72926760104815 244.39521465370024C219.7557659501894 203.6598524144598 345.975610575419 212.77091303559433 412.8150892983367 206.34520794918774C479.65456802125436 199.9195028627812 488.6971466679511 192.99434463615233 526.5587654710531 213.5518302389488C564.4203842741551 234.10931584174534 589.7822011915721 258.676384693095 594.5508595532261 305.021138842611C599.3195179148802 351.3658929921269 586.3973590371888 374.5859498636423 549.4483256069927 436.006650156625 "></path><path d="M586.0921232120447 309.15065189140364C590.653448601453 353.48041673007117 578.293122718444 375.69090591152053 542.9505690026042 434.44114097437364C507.6080152867644 493.19137603722675 457.09215364104773 597.9533877664662 416.4478653760136 591.1517801930981C375.80357711097963 584.3501726197298 389.9979952282598 472.6249126937196 347.8579853304411 401.79342462220666C305.7179754326223 330.96193655069385 200.75916727165247 290.1248969830234 214.17581786648321 251.16063744983688C227.59246846131396 212.19637791665042 348.3244937550119 220.91130546730085 412.2579081856287 214.76497886291196C476.19132261624554 208.61865225852307 484.8407456696078 201.99458786783458 521.0562071334446 221.65826974877035C557.2716685972812 241.32195162970612 581.5307978226365 264.8208870527362 586.0921232120447 309.15065189140364C590.653448601453 353.48041673007117 578.293122718444 375.69090591152053 542.9505690026042 434.44114097437364 "></path><path d="M577.6334173884416 313.2801649401964C581.9874098056039 355.59494046801535 570.1889169172771 376.79586195939896 536.4528429157938 432.87563179212236C502.71676891431025 488.95540162484576 454.49708279794436 588.9555037300288 415.7002621813209 582.4630601372684C376.9034415646975 575.970616544508 390.452658858465 469.3237775242253 350.22810395600163 401.7119025468721C310.0035490535383 334.1000275695189 209.81559580897618 295.11921707310614 222.6223986494964 257.9260602459736C235.42920149001668 220.73290341884103 350.6734074521828 229.0516978990073 411.70075759049894 223.18474977663612C472.7281077288151 217.31780165426488 480.9843751888426 210.99483109951677 515.553679313414 229.76470925859184C550.1229834379853 248.5345874176669 573.2794249712791 270.9653894123775 577.6334173884416 313.2801649401964C581.9874098056039 355.59494046801535 570.1889169172771 376.79586195939896 536.4528429157938 432.87563179212236 "></path><path d="M569.174650529682 317.4096932477782C573.3213099745985 357.7094794647486 562.084650080954 377.90083326606634 529.955055793827 431.31013786866004C497.82546150669987 484.71944247125384 451.9019509196846 579.9576349523804 414.95259795147194 573.7743553402277C378.0032449832592 567.5910757280748 390.9072614535139 466.02265761352 352.59816154640595 401.6303957303264C314.289061639298 337.23813384713293 218.8719633111436 300.11355242197794 231.06891839735334 264.6914983008993C243.26587348356315 229.26944417982065 353.0222601141976 237.1921055895029 411.1435459602129 231.60453594914935C469.26483180622824 226.01696630879582 477.1279436729212 219.99508958998808 510.05109045822724 237.87116402720244C542.9742372435333 255.7472384644168 565.0279910847655 277.1099070308078 569.174650529682 317.4096932477782C573.3213099745985 357.7094794647486 562.084650080954 377.90083326606634 529.955055793827 431.31013786866004 "></path><path d="M560.7159447060787 321.53920629657097C564.6552711787496 359.82400320269284 553.9804442797872 379.00578931394466 523.4573297070165 429.74462868640876C492.93421513424573 480.48346805887275 449.30688007658136 570.9597509159431 414.20499475677923 565.085635284398C379.1031094369771 559.2115196528528 391.3619250837191 462.7215224440256 354.9682801719665 401.5488736549918C318.57463526021394 340.37622486595797 227.9283918484673 305.1078725120607 239.51549918036653 271.456921097036C251.10260651226582 237.80596968201127 355.3711738113685 245.3324980212094 410.58639536508315 240.02430686287352C465.80161691879766 234.71611570453769 473.271573192156 228.99533282167033 504.5485626381967 245.97760353702398C535.8255520842374 262.9598742523776 556.776618233408 283.25440939044904 560.7159447060787 321.53920629657097C564.6552711787496 359.82400320269284 553.9804442797872 379.00578931394466 523.4573297070165 429.74462868640876 "></path><path d="M552.2572236236865 325.6687193453637C555.9892171241114 361.9385269406371 545.8762232198312 380.110745361823 516.959588361417 428.17911950415737C488.04295350300254 476.24749364649165 446.7117939746888 561.9618668795058 413.4573763032974 556.3969152285681C380.2029586319059 550.8319635776306 391.8165734551352 459.4203872745312 357.338383538738 401.46735157965713C322.86019362234083 343.51431588478295 236.9848051270019 310.1021926021434 247.96206470459072 278.22234389317265C258.9393242821795 246.34249518420188 357.72007224975044 253.47289045291586 410.02922951116426 248.44407777659768C462.33838677257813 243.4152651002795 469.4151874526017 237.99557605335258 499.0460195593771 254.08404304684547C528.6768516661526 270.1725100403384 548.5252301232615 289.3989117500903 552.2572236236865 325.6687193453637C555.9892171241114 361.9385269406371 545.8762232198312 380.110745361823 516.959588361417 428.17911950415737 "></path><path d="M543.7985178000832 329.7982323941564C547.3231783282623 364.05305067858126 537.7720174186644 381.2157014097013 510.46186227460635 426.613610321906C483.1517071305484 472.01151923411066 444.11672313158556 552.9639828430684 412.7097731086046 547.7081951727384C381.3028230856238 542.4524075024085 392.2712370853403 456.1192521050368 359.7085021642986 401.3858295043224C327.14576724325684 346.6524069036079 246.0412336643256 315.09651269222616 256.4086454876039 284.98776668930935C266.77605731088215 254.8790206863925 360.06898594692143 261.6132828846224 409.4720789160345 256.86384869032184C458.87517188514755 252.11441449602137 465.55881697183645 246.99581928503483 493.5434917393467 262.190482556667C521.5281665068568 277.3851458282992 540.2738572719041 295.54341410973154 543.7985178000832 329.7982323941564C547.3231783282623 364.05305067858126 537.7720174186644 381.2157014097013 510.46186227460635 426.613610321906 "></path><path d="M535.3397356825346 333.9277607017382C538.657063238468 366.1675896753145 529.6677353235523 382.3206727163687 503.9640598938506 425.04811639844365C478.26038446414896 467.77556008051874 441.52157599453676 543.96611406542 411.9620936199666 539.0194903756977C382.40261124539643 534.0728666859754 392.72582442160024 452.8181321943316 362.07854449591383 401.3043226877768C331.4312645702274 349.79051318122197 255.09758590770394 320.09084804109796 264.8551499766718 291.75320474423506C274.61271404563956 263.41556144737217 362.4178233501471 269.7536905751179 408.9148520269594 265.28363486283513C455.41188070377166 260.8135791505523 461.702370197126 255.99607777550608 488.04088762537083 270.29693732527755C514.3794050536158 284.597796875049 532.0224081266015 301.68793172816186 535.3397356825346 333.9277607017382C538.657063238468 366.1675896753145 529.6677353235523 382.3206727163687 503.9640598938506 425.04811639844365 "></path><path d="M526.8809993413533 338.0572737505309C529.9909939250408 368.28211341325874 521.5634990048072 383.425628764247 497.4663032894621 423.48260721619226C473.3691075741167 463.53958566813765 438.9264746338553 534.9682300289826 411.21445990769575 530.330770319868C383.5024451815362 525.6933106107533 393.18045753422723 449.5169970248372 364.44863260389627 401.2228006124421C335.7168076735653 352.92860420004695 264.1539839274495 325.0851681311807 273.30170024210685 298.51862754037177C282.44941655676416 271.9520869495628 364.76670652973996 277.8940830068244 408.35767091425146 273.7034057765593C451.94863529876295 269.5127285462941 457.84596919878265 264.9963210071883 482.5383292877623 278.4033768350991C507.2306893767418 291.81043266300986 523.7710047576659 307.8324340878031 526.8809993413533 338.0572737505309C529.9909939250408 368.28211341325874 521.5634990048072 383.425628764247 497.4663032894621 423.48260721619226 "></path><path d="M518.422278258961 342.1867867993236C521.3249398704027 370.3966371512029 513.4592779448514 384.5305848121253 490.9685619438625 421.917098033941C468.4778459428735 459.30361125575655 436.3313885319629 525.9703459925453 410.466841454214 521.6420502640383C384.602294376465 517.3137545355313 393.63510590564334 446.21586185534284 366.8187359706678 401.1412785371074C340.0023660356922 356.0666952188719 273.2103972059841 330.07948822126343 281.748265766331 305.2840503365084C290.28613432667777 280.4886124517534 367.1156049681219 286.03447543853093 407.8005050603326 282.12317669028346C448.48540515254336 278.211877942036 453.98958345922847 273.9965642388706 477.0357862089427 286.50981634492064C500.0819889586569 299.02306845097064 515.5196166475195 313.97693644744436 518.422278258961 342.1867867993236C521.3249398704027 370.3966371512029 513.4592779448514 384.5305848121253 490.9685619438625 421.917098033941 "></path><path d="M509.96352665899065 346.3162998481164C512.6588552981864 372.51116088914716 505.35502636731735 385.63554086000363 484.47079008068476 420.3515888516896C463.5865537940522 455.06763684337557 433.7362719124923 516.9724619561078 409.719192483154 512.9533302082085C385.7021130538157 508.9341984603092 394.0897237594813 442.91472668584856 369.18880881986115 401.05975646177274C344.287893880241 359.20478623769696 282.2667799669406 335.07380831134617 290.194800772977 312.0494731326451C298.1228215790133 289.025137953944 369.4644728889257 294.1748678702374 407.24330868883567 290.5429476040076C445.02214448874565 286.91102733777785 450.13316720209605 282.9968074705528 471.53321261254496 294.6162558547421C492.93325802299387 306.2357042389315 507.2681980197948 320.1214388070856 509.96352665899065 346.3162998481164C512.6588552981864 372.51116088914716 505.35502636731735 385.63554086000363 484.47079008068476 420.3515888516896 "></path><path d="M501.5048055765983 350.4458128969091C503.99280124354823 374.62568462709135 497.2508053073615 386.740496907882 477.9730487350853 418.7860796694382C458.695292162809 450.83166243099447 431.14118581059984 507.97457791967054 408.97157402967224 504.26461015237874C386.8019622487446 500.55464238508705 394.5443721308974 439.6135915163542 371.55891218663265 400.97823438643803C348.57345224236786 362.34287725652194 291.32319324547524 340.06812840142896 298.6413662972011 318.81489592878177C305.95953934892697 297.56166345613457 371.8133713273076 302.3152603019439 406.68614283491684 298.9627185177318C441.558914342526 295.61017673351967 446.27678146254175 291.997050702235 466.03066953372536 302.72269536456366C485.7845576049091 313.44834002689225 499.0168099096484 326.26594116672686 501.5048055765983 350.4458128969091C503.99280124354823 374.62568462709135 497.2508053073615 386.740496907882 477.9730487350853 418.7860796694382 "></path><path d="M493.0460692354169 354.57535646327995C495.326731930121 376.7402388826137 489.14656898861654 387.8454834733384 471.47529213069663 417.22060100476494C453.8040152727767 446.5957185361915 428.5460844499184 498.97672440081124 408.22394031740134 495.5759206141272C387.90179618488435 492.17511682744305 394.99900524352444 436.3124868644379 373.9290002946151 400.89674282868145C352.8589953457057 365.48099879292505 300.37959126522077 345.0624790090898 307.08791656263617 325.5803492424966C313.7962418600515 306.0982194759033 374.16225450690047 310.45568325122855 406.1289617222089 307.3825199490341C438.0956689375173 304.30935664683966 442.42038046419844 300.9973244514954 460.5281111961168 310.8291653919633C478.6358419280351 320.66100633243116 490.7654065407128 332.41047404394624 493.0460692354169 354.57535646327995C495.326731930121 376.7402388826137 489.14656898861654 387.8454834733384 471.47529213069663 417.22060100476494 "></path><path d="M484.5873328942355 358.7048695120727C486.6606626166938 378.8547626205579 481.04233266987154 388.95043952121677 464.97753552630803 415.6550918225136C448.91273838274446 442.3597441238105 425.95098308923684 489.9788403643738 407.4763066051305 486.8872005582974C389.00163012102416 483.79556075222104 395.4536383561515 433.0113516949436 376.29908840259753 400.8152207533468C357.1445384490435 368.61908981175003 309.43598928496635 350.05679909917257 315.53446682807123 332.34577203863324C321.6329443711761 314.6347449780939 376.5111376864933 318.596075682935 405.571780609501 315.80229086275824C434.63242353250865 313.0085060425815 438.56397946585514 309.99756768317764 455.02555285850815 318.9356049017848C471.48712625116116 327.873642120392 482.5140031717773 338.5549764035875 484.5873328942355 358.7048695120727C486.6606626166938 378.8547626205579 481.04233266987154 388.95043952121677 464.97753552630803 415.6550918225136 "></path><path d="M476.12861181184326 362.83438256086544C477.9946085620557 380.96928635850213 472.9381116099156 390.0553955690951 458.4797941807085 414.0895826402623C444.02147675150127 438.1237697114294 423.3558969873444 480.9809563279365 406.7286881516487 478.19848050246765C390.10147931595293 475.4160046769989 395.9082867275676 429.7102165254492 378.66919176936904 400.73369867801216C361.4300968111704 371.75718083057507 318.49240256350095 355.0511191892553 323.98103235229536 339.11119483476995C329.4696621410897 323.17127048028453 378.86003612487525 326.7364681146415 405.0146147555821 324.22206177648246C431.16919338628907 321.70765543832334 434.70759372630084 318.9978109148599 449.52300977968855 327.04204441160635C464.3384258330763 335.08627790835277 474.26261506163075 344.69947876322874 476.12861181184326 362.83438256086544C477.9946085620557 380.96928635850213 472.9381116099156 390.0553955690951 458.4797941807085 414.0895826402623 "></path><path d="M467.66987547066185 366.96386509208C469.32853924862854 383.0837795788682 464.83387529117067 391.1603210993953 451.98203757631984 412.52404294043276C439.130199861469 433.8877647814703 420.7607956266629 471.98304177392095 405.98105443937783 469.5097299290598C391.20131325209275 467.03641808419866 396.36291984019465 426.40905083837674 381.0392798773514 400.65214608509933C365.71563991450824 374.8952413318219 327.54880058324653 360.0454087617599 332.4275826177304 345.87658711332847C337.3063646522143 331.707765464897 381.2089193044681 334.8768300287699 404.4574336428742 332.6418021726285C427.70594798128036 330.4067743164871 430.85119272795754 327.998023628964 444.02045144207995 335.1484534038497C457.1897101562024 342.2988831787355 466.01121169269527 350.84395060529187 467.66987547066185 366.96386509208C469.32853924862854 383.0837795788682 464.83387529117067 391.1603210993953 451.98203757631984 412.52404294043276 "></path><path d="M459.2111391294805 371.09337814087274C460.66246993520133 385.1983033168124 456.7296389724257 392.2652771472736 445.48428097193124 410.95853375818143C434.23892297143675 429.6517903690892 418.1656942659814 462.9851577374836 405.233420727107 460.8210098732301C392.3011471882325 458.6568620089766 396.81755295282164 423.10791566888236 383.40936798533386 400.57062400976463C370.0011830178461 378.0333323506469 336.60519860299206 365.03972885184265 340.8741328831655 352.6420099094652C345.1430671633389 340.24429096708764 383.55780248406097 343.0172224604764 403.9002525301663 341.06157308635267C424.24270257627165 339.1059237122289 426.99479172961424 336.9982668606462 438.51789310447134 343.25489291367126C450.04099447932845 349.51151896669626 457.7598083237597 356.9884529649331 459.2111391294805 371.09337814087274C460.66246993520133 385.1983033168124 456.7296389724257 392.2652771472736 445.48428097193124 410.95853375818143 "></path><path d="M450.75240278829915 375.2228911896655C451.9964006217741 387.3128270547566 448.62540265368074 393.3702331951519 438.98652436754264 409.39302457593004C429.3476460814045 425.4158159567082 415.5705929052999 453.9872737010462 404.4857870148361 452.1322898174003C393.40098112437227 450.27730593375446 397.2721860654487 419.806780499388 385.7794560933163 400.48910193443C374.2867261211839 381.1714233694719 345.6615966227376 370.0340489419254 349.32068314860055 359.4074327056018C352.97976967446345 348.78081646927825 385.9066856636538 351.1576148921829 403.3430714174584 349.48134400007683C420.779457171263 347.80507310797077 423.1383907312709 345.99851009232844 433.0153347668627 351.36133242349274C442.89227880245454 356.7241547546571 449.5084049548242 363.13295532457437 450.75240278829915 375.2228911896655C451.9964006217741 387.3128270547566 448.62540265368074 393.3702331951519 438.98652436754264 409.39302457593004 "></path><path d="M442.29366644711774 379.35243475603636C443.3303313083469 389.427381310279 440.52116633493574 394.47521976060835 432.488767763154 407.82754591125683C424.45636919137223 421.17987206190526 412.9754915446184 444.9894201821869 403.73815330256525 443.4436002791487C394.5008150605121 441.8977803761105 397.72681917807574 416.50567584747176 388.14954420129874 400.4076103766734C378.5722692245218 384.30954490587504 354.7179946424832 375.02839954958625 357.7672334140356 366.1728860193166C360.81647218558805 357.317372489047 388.25556884324664 359.29803784146753 402.7858903047505 357.9011454313791C417.31621176625436 356.50425302129076 419.28198973292757 354.9987838415888 427.5127764292541 359.4678024508924C435.7435631255806 363.936821060196 441.25700158588864 369.27748820179374 442.29366644711774 379.35243475603636C443.3303313083469 389.427381310279 440.52116633493574 394.47521976060835 432.488767763154 407.82754591125683 "></path><path d="M433.8349301059364 383.4819478048291C434.66426199491974 391.54190504822316 432.4169300161908 395.58017580848673 425.9910111587654 406.26203672900544C419.56509230134 416.9438976495242 410.3803901839369 435.99153614574954 402.9905195902944 434.754880223319C395.60064899665184 433.5182243008884 398.1814522907028 413.20454067797743 390.5196323092812 400.3260883013387C382.8578123278596 387.4476359247 363.7743926622287 380.02271963966905 366.2137836794707 372.9383088154533C368.65317469671265 365.85389799123755 390.6044520228395 367.438430273174 402.2287091920426 366.3209163451033C413.85296636124565 365.2034024170326 415.42558873458427 363.99902707327107 422.01021809164547 367.57424196071395C428.5948474487067 371.1494568481568 433.0055982169531 375.421990561435 433.8349301059364 383.4819478048291C434.66426199491974 391.54190504822316 432.4169300161908 395.58017580848673 425.9910111587654 406.26203672900544 "></path><path d="M425.3762090235441 387.6114608536218C425.9982079402816 393.6564287861674 424.3127089562349 396.68513185636505 419.49326981316585 404.6965275467541C414.6738306700968 412.7079232371432 407.7853040820445 426.99365210931217 402.2429011368126 426.0661601674892C396.70049819158066 425.1386682256663 398.6361006621189 409.90340550848305 392.8897356760527 400.24456622600405C387.1433706899865 390.585726943525 372.83080594076336 385.0170397297518 374.6603492036948 379.70373161159C376.48989246662626 374.39042349342816 392.9533504612214 375.5788227048805 401.67154333812374 374.7406872588275C410.389736215026 373.90255181277445 411.56920299502997 372.9992703049533 416.50767501282587 375.68068147053543C421.4461470306218 378.3620926361176 424.7542101068066 381.56649292107625 425.3762090235441 387.6114608536218C425.9982079402816 393.6564287861674 424.3127089562349 396.68513185636505 419.49326981316585 404.6965275467541 "></path><path d="M416.91747268236276 391.74097390241457C417.3321386268544 395.7709525241116 416.20847263748993 397.79008790424336 412.9955132087772 403.1310183645027C409.7825537800645 408.4719488247621 405.190202721363 417.99576807287474 401.49526742454174 417.3774401116595C397.8003321277204 416.7591121504442 399.0907337747459 406.6022703389887 395.2598237840351 400.16304415066935C391.42891379332434 393.72381796235004 381.8872039605089 390.0113598198345 383.10689946912987 386.46915440772665C384.32659497775086 382.9269489956188 395.3022336408143 383.719215136587 401.11436222541585 383.16045817255167C406.92649081001736 382.6017012085163 407.71280199668666 381.9995135366355 411.00511667521727 383.787120980357C414.29743135374787 385.5747284240784 416.5028067378711 387.7109952807175 416.91747268236276 391.74097390241457C417.3321386268544 395.7709525241116 416.20847263748993 397.79008790424336 412.9955132087772 403.1310183645027 "></path><path d="M408.45873634118135 395.8704869512073C408.6660693134272 397.8854762620558 408.10423631874494 398.8950439521217 406.4977566043886 401.5655091822514C404.89127689003226 404.23597441238104 402.5951013606815 408.99788403643737 400.74763371227084 408.6887200558297C398.90016606386024 408.3795560752221 399.54536688737295 403.30113516949433 397.62991189201756 400.0815220753347C395.71445689666217 396.861908981175 390.94360198025447 395.00567990991726 391.55344973456494 393.23457720386335C392.1632974888754 391.4634744978094 397.65111682040714 391.8596075682935 400.5571811127079 391.58022908627584C403.4632454050087 391.30085060425813 403.8564009983433 390.99975676831775 405.5025583376086 391.89356049017846C407.1487156768739 392.7873642120392 408.25140336893554 393.85549764035875 408.45873634118135 395.8704869512073C408.6660693134272 397.8854762620558 408.10423631874494 398.8950439521217 406.4977566043886 401.5655091822514 "></path></g></svg>