<svg xmlns="http://www.w3.org/2000/svg" version="1.1" xmlns:xlink="http://www.w3.org/1999/xlink" xmlns:svgjs="http://svgjs.dev/svgjs" viewBox="0 0 800 800" opacity="0.16"><defs><linearGradient x1="50%" y1="0%" x2="50%" y2="100%" id="uundulate-grad"><stop stop-color="hsl(180, 69%, 40%)" stop-opacity="1" offset="45%"></stop><stop stop-color="hsl(180, 69%, 60%)" stop-opacity="1" offset="100%"></stop></linearGradient></defs><g stroke-width="1" stroke="url(#uundulate-grad)" fill="none"><path d="M734.5260401715918 125.2910417792973C768.5460722156424 208.4824575236114 635.6513286962856 501.49537394113736 566.0244316146666 618.4605016439754C496.3975345330475 735.4256293468135 469.2879257573212 686.9014970065016 400.3169341798214 686.7236547529193C331.34594260232143 686.5458124993371 283.5446952987163 666.5651419507409 234.9636720426663 617.6068588267805C186.3826487866162 568.6485757028199 200.99084382858905 555.3567350383287 167.12802255078032 451.72389575790976C133.26520127297158 348.09105647749095 23.338743398257805 168.6238531321527 72.42212990918364 120.16923028076928C121.50551642010947 71.71460742938586 264.78996316522193 218.07466200907527 402.7282778032237 219.14170607126846C540.6665924412255 220.20875013346176 700.5060081275412 42.099626034983146 734.5260401715918 125.2910417792973C768.5460722156424 208.4824575236114 635.6513286962856 501.49537394113736 566.0244316146666 618.4605016439754 "></path><path d="M726.1628304209642 132.15873369135784C759.3323616639136 213.2703640420641 629.7599867325406 498.95795754915184 561.873762077962 612.9989570594191C493.9875374233834 727.0399565696862 467.5556688670504 679.7289275378821 400.3089520789879 679.5555313406394C333.0622352909255 679.3821351433966 286.45601916991063 659.9009813585154 239.0895214952618 612.166655312654C191.72302382061292 564.4323292667925 205.9660139865365 551.4727846189135 172.94976324067295 450.4307663205051C139.9335124948094 349.3887480220967 32.7552160669635 174.40822476039187 80.61151791511617 127.164967480293C128.46781976326884 79.92171020019418 268.1701553397535 222.62276341539132 402.66001211180514 223.66313137602975C537.1498688838569 224.7034993366682 692.9932991780148 51.04710334065152 726.1628304209642 132.15873369135784C759.3323616639136 213.2703640420641 629.7599867325406 498.95795754915184 561.873762077962 612.9989570594191 "></path><path d="M717.7997122230709 139.02642560341837C750.118742664919 218.0582705605168 623.8687363215299 496.42054115716644 557.7231840939919 607.5374124748625C491.57763186645366 718.6542837925588 465.8235035295138 672.5563580692625 400.3010615308888 672.3874079283594C334.778619532264 672.2184577874561 289.3674345938391 653.2368207662898 243.21546250059157 606.7264517985275C197.06349040734398 560.216082830765 210.9412756972182 547.5888341994983 178.7715954832999 449.1376368831003C146.6019152693816 350.68643956670235 42.17178028840351 180.192596388631 88.80099747378307 134.16070467981677C135.43021465916263 88.1288129710025 271.5504390670194 227.17086482170743 402.5918379731211 228.18455668079105C533.6332368792227 229.1982485398746 685.4806817812228 59.99458064631989 717.7997122230709 139.02642560341837C750.118742664919 218.0582705605168 623.8687363215299 496.42054115716644 557.7231840939919 607.5374124748625 "></path><path d="M709.4365329900212 145.89420906821329C740.9050626307679 222.84626863170382 617.977424875363 493.8832163179153 553.5725450748655 602.0759594430406C489.1676652743679 710.2687025681657 464.091277156821 665.3838801533773 400.29310994763364 665.2193760688136C336.4949427384462 665.05487198425 292.27878898261145 646.5727517267985 247.3413424707652 601.2863398371352C202.40389595891884 555.9999279474719 215.91647637274372 543.7049753328174 184.59336669077067 447.8445989984299C153.27025700879756 351.98422266404236 51.58828347468733 185.97705956960453 96.99041599729372 141.15653343207487C142.39254851990012 96.3360072945452 274.93066175912907 231.7190577807579 402.52360279928075 232.70607353828666C530.1165438394324 233.6930892958154 677.9680033492745 68.94214950472269 709.4365329900212 145.89420906821329C740.9050626307679 222.84626863170382 617.977424875363 493.8832163179153 553.5725450748655 602.0759594430406 "></path><path d="M701.0734147921279 152.7618704626957C731.6914436317734 227.6341446325784 612.0861744643524 491.34576940835177 549.4219670908954 596.6143843409059C486.75775971743815 701.8829992734602 462.3591118192844 658.2112801671796 400.2852193995345 658.0512221389555C338.21132697978464 657.8911641107314 295.19020440654003 639.9085606169949 251.46728347609496 595.8461058054305C207.7443625456499 551.7836509938661 220.89173808342548 539.8209943958238 190.41519893339762 446.55143904344686C159.93865978336976 353.28188369107 61.00484769612734 191.76140068026552 105.17989555596063 148.15224011402046C149.35494341579385 104.54307954777539 278.310945486395 236.26712866949583 402.4554286605967 237.22746832546977C526.5999118347983 238.1878079814437 670.4553859524824 77.88959629281294 701.0734147921279 152.7618704626957C731.6914436317734 227.6341446325784 612.0861744643524 491.34576940835177 549.4219670908954 596.6143843409059 "></path><path d="M692.7102965942346 159.6296539274906C722.4778246327788 232.42214270376547 606.1949240533418 488.80844456910063 545.271389106925 591.152931309084C484.3478541605084 693.4974180490673 460.62694648174784 651.0388022512944 400.2773288514354 650.88319027941C339.927711221123 650.7275783075254 298.1016198304686 633.2444915775038 255.59322448142484 590.4059938440384C213.084829132381 547.5674961105731 225.86699979410724 535.9371355291431 196.23703117602457 445.25840115877656C166.60706255794196 354.5796667884101 70.42141191756741 197.54586386123907 113.36937511462747 155.1480688662786C156.3173383116876 112.75027387131809 281.691229213661 240.81532162854631 402.3872545219126 241.74898518296538C523.0832798301641 242.6826487373845 662.9427685556903 86.83716515121569 692.7102965942346 159.6296539274906C722.4778246327788 232.42214270376547 606.1949240533418 488.80844456910063 545.271389106925 591.152931309084 "></path><path d="M684.347117361185 166.49731532197302C713.264144598628 237.21001870464 600.3036126071747 486.270997659537 541.1207500877986 585.6913562069494C481.9378875684224 685.1117147543617 458.894720109055 643.8662022650967 400.26937726818016 643.7150363495517C341.6440344273052 643.5638704340068 301.01297421924096 626.5803004677001 259.71910445159835 584.9657598123337C218.4252346839558 543.3512191569673 230.84220046963276 532.0531545921497 202.05880238349533 443.96524120379377C173.2754042973579 355.87732781543764 79.83791510385117 203.33020497190012 121.55879363813813 162.1437755482242C163.27967217242508 120.95734612454828 285.0714519057707 245.3633925172843 402.3190193480722 246.27037997014855C519.5665867903738 247.1773674230128 655.430090123742 95.78461193930599 684.347117361185 166.49731532197302C713.264144598628 237.21001870464 600.3036126071747 486.270997659537 541.1207500877986 585.6913562069494 "></path><path d="M675.9839686457136 173.36512930434606C704.0504950820554 241.9980472934052 594.412331678586 483.7337033378641 536.9701415862503 580.2299336927055C479.52795149391454 676.726164047547 457.1625242539403 636.6937548667895 400.26145620250304 636.5470350075842C343.36038815106554 636.4003151483788 303.9243591255914 619.916261945787 263.8450149393501 579.5256783685197C223.7656707531088 539.1350947912523 235.81743166273634 528.169326243047 207.88060410854416 442.67223383670137C179.94377655435198 357.1751414303558 89.25444880771312 209.11469867045173 129.7482426792269 169.13963481806042C170.24203655074075 129.1645709656691 288.4517051154585 249.91161599391285 402.25081469181 250.7919273452223C516.0499242681615 251.67223869653174 647.9174422093719 104.73221131528686 675.9839686457136 173.36512930434606C704.0504950820554 241.9980472934052 594.412331678586 483.7337033378641 536.9701415862503 580.2299336927055 "></path><path d="M667.6208199302422 180.23276018125034C694.8368455654827 246.78589277670164 588.5210507499972 481.19622591072243 532.819533084702 574.7683280729929C477.1180154194068 668.3404302352633 455.43032839882574 629.5211243630138 400.2535351368258 629.3788505601481C345.07674187482587 629.2365767572821 306.8357440319419 613.2520403184053 267.97092542710175 574.0854138192369C229.10610682226172 534.9187873200685 240.79266285584004 524.2853147884755 213.70240583359305 441.37904336414033C186.61214881134606 358.4727719398053 98.670982511575 214.89900926353465 137.93769172031568 176.13531098242794C177.20440092905636 137.37161270132117 291.8319583251463 254.4596563650727 402.18261003554767 255.31329161482734C512.5332617459492 256.1669268645819 640.4047942950017 113.67962758579898 667.6208199302422 180.23276018125034C694.8368455654827 246.78589277670164 588.5210507499972 481.19622591072243 532.819533084702 574.7683280729929 "></path><path d="M659.2576406971926 187.10054364604525C685.6231655313318 251.57389084788872 582.6297393038304 478.6589010714713 528.6688940655756 569.3068750411708C474.7080488273208 659.9548490108702 453.6981020261329 622.3486464471285 400.24558355357044 622.2108187006022C346.7930650810081 622.0729909540761 309.7470984207141 606.587971278914 272.0968053972754 568.6453018578447C234.44651237383653 530.7026324367754 245.7678635313655 520.4014559217946 219.52417704106375 440.08600547947003C193.28049055076195 359.7705550371453 108.08748569785882 220.6834724445082 146.12711024382634 183.13113973468603C184.16673478979385 145.57880702486386 295.21218101725594 259.0078493241232 402.11437486170735 259.83480847232295C509.01656870615875 260.6617676205227 632.8921158630535 122.62719644420179 659.2576406971926 187.10054364604525C685.6231655313318 251.57389084788872 582.6297393038304 478.6589010714713 528.6688940655756 569.3068750411708 "></path><path d="M650.8944919817212 193.96820504052766C676.4095160147591 256.36176684876324 576.7384583752416 476.12145416190765 524.5182855640273 563.8452999390363C472.29811275281304 651.5691457161647 451.96590617101833 615.1760464609308 400.2376624878933 615.0426647707443C348.5094188047684 614.9092830805575 312.6584833270647 599.9237801691104 276.22271588502707 563.2050678261401C239.7869484429895 526.4863554831697 250.74309472446913 516.5174749848013 225.34597876611258 438.7928455244871C199.94886280775603 361.06821606417293 117.50401940172071 226.4678135551692 154.31655928491512 190.12684641663162C191.12909916810946 153.78587927809406 298.59243422694374 263.5559202128611 402.04617020544515 264.35620325950606C505.49990618394645 265.156486306151 625.3794679486832 131.57464323229203 650.8944919817212 193.96820504052766C676.4095160147591 256.36176684876324 576.7384583752416 476.12145416190765 524.5182855640273 563.8452999390363 "></path><path d="M642.5313432662498 200.8360190229007C667.1958664981864 261.14979543752844 570.8471774466528 473.58415984023486 520.3676770624791 558.3838774247923C469.8881766783052 643.18359500935 450.23371031590364 608.0035990626238 400.2297414222162 607.8746634287767C350.22577252852875 607.7457277949295 315.56986823341504 593.2597416471973 280.34862637277877 557.764986382326C245.1273845121425 522.2702311174546 255.71832591757277 512.6336466356986 231.16778049116147 437.49983815739483C206.6172350647501 362.36602967909107 126.9205531055826 232.25230725372086 162.50600832600384 197.1227056864679C198.09146354642508 161.99310411921488 301.9726874366316 268.1041436894897 401.97796554918295 268.8777506345798C501.98324366173415 269.65135757966993 617.8668200343132 140.5222426082729 642.5313432662498 200.8360190229007C667.1958664981864 261.14979543752844 570.8471774466528 473.58415984023486 520.3676770624791 558.3838774247923 "></path><path d="M634.1682098095674 207.7036804173831C657.9822322404028 265.93767143840296 564.9559117768531 471.0467129306712 516.2170838197197 552.9223023226577C467.47825586258637 634.7978917146445 448.501529719578 600.8309990764262 400.221835615328 600.7065094989185C351.94214151107815 600.582019921411 318.48126839855456 586.5955505373936 284.4745521193195 552.3247523506213C250.4678358400845 518.0539541638491 260.69357236946547 508.74966569870503 236.98959747499936 436.2066782024119C213.28562258053324 363.6636907061187 136.3371020682336 238.0366483643819 170.69547262588168 204.1184123684135C205.05384318352975 170.20017637244507 305.35295590510844 272.6522145782277 401.9097761517097 273.39914542176297C498.466596398311 274.14607626529823 610.3541873787319 149.4696893963632 634.1682098095674 207.7036804173831C657.9822322404028 265.93767143840296 564.9559117768531 471.0467129306712 516.2170838197197 552.9223023226577 "></path><path d="M625.8050458353069 214.57146388217802C648.7685674650411 270.72566950959003 559.0646155894752 468.5093880914201 512.0664600593824 547.4608492908358C465.06830452928943 626.4123104902515 446.76931860567424 593.6585211605409 400.21389929086183 593.5384776393729C353.6584799760494 593.4184341182049 321.39263804611596 579.9314814979025 288.60044734828216 546.8846403892292C255.80825665044836 513.8377992805558 265.66878830378005 504.8658068320242 242.81138394125912 434.9136403177415C219.95397957873826 364.9614738034587 145.75362051330643 243.8211115453554 178.8849064081814 211.11424112067164C212.0161923030563 178.40737069598777 308.73319385600723 277.2004075372781 401.84155623665845 277.9206622792586C494.94991861730966 278.64091702123903 602.8415242055728 158.41725825476595 625.8050458353069 214.57146388217802C648.7685674650411 270.72566950959003 559.0646155894752 468.5093880914201 512.0664600593824 547.4608492908358 "></path><path d="M617.4419276374135 221.4391405354495C639.5549484660464 275.5135607692537 553.1733651784646 465.9719564406455 507.9158820754121 541.9992894474904C462.6583989723598 618.026622454335 445.0371532681377 586.4859364331323 400.20600874276283 586.3703389683038C355.37486421738777 586.2547415034753 324.30405347004455 573.2673056468878 292.72638835361204 541.4444216163135C261.14872323717947 509.62153758573925 270.6440500144618 500.9818411538199 248.63321618388613 433.62049562154766C226.62238235331046 366.2591500892754 155.1701847347465 249.6054679148055 187.0743859668483 218.1099630614063C218.9785871989501 186.61445820800708 312.11347758327315 281.74849368480517 401.77338209797426 282.4420723252308C491.4332866126755 283.1356509656564 595.3289068087806 167.36472030164526 617.4419276374135 221.4391405354495C639.5549484660464 275.5135607692537 553.1733651784646 465.9719564406455 507.9158820754121 541.9992894474904 "></path><path d="M609.078763663153 228.3068477062991C630.3412836906846 280.30148254649544 547.2820689910868 463.43455530744916 503.7652583150748 536.537760121723C460.248447639063 609.6409649359967 443.3049421542339 579.3133822233018 400.19807241829653 579.2022308148129C357.09120268235915 579.091079406324 327.21542311760595 566.6031603134513 296.8522835825746 536.0042333609761C266.48914404754333 505.4053064085008 275.6192659487764 497.09790599319376 254.4550026501459 432.32738144293194C233.29073935151547 367.5568568926701 164.58670317981932 255.38985480183374 195.263819749148 225.10571551971907C225.94093631847664 194.82157623760446 315.4937155341719 286.29661034991034 401.705162182923 286.9635128887811C487.9166088316741 287.6304154276519 587.8162436356215 176.31221286610275 609.078763663153 228.3068477062991C630.3412836906846 280.30148254649544 547.2820689910868 463.43455530744916 503.7652583150748 536.537760121723 "></path><path d="M600.7155996888926 235.174631171094C621.127618915323 285.08948061768245 541.3907728037088 460.897230468198 499.61463455473745 531.0763070899009C457.83849630576606 601.2553837116037 441.57273104033027 572.1409043074166 400.19013609383023 572.0341989552672C358.8075411473303 571.9274936031179 330.12679276516735 559.9390912739602 300.9781788115373 530.5641213995839C271.82956485790726 501.18915152520754 280.5944818830909 493.2140471265129 260.2767891164057 431.0343435582615C239.95909634972048 368.85463999001024 174.0032216248922 261.1743179828072 203.45325353144767 232.10154427197722C232.9032854380032 203.02877056114716 318.8739534850706 290.84480330896076 401.63694226787175 291.4850297462767C484.3999310506729 292.1252561835927 580.3035804624622 185.2597817245055 600.7155996888926 235.174631171094C621.127618915323 285.08948061768245 541.3907728037088 460.897230468198 499.61463455473745 531.0763070899009 "></path><path d="M592.3524509734211 242.04232308315454C611.9139693987502 289.87738713613516 535.4994918751202 458.3598140762126 495.4640260531892 525.6147625053445C455.4285602312582 592.8697109344764 439.8405351852156 564.9683348387971 400.1822150281531 564.8660755429872C360.52389487109065 564.7638162471774 333.0381776715178 553.2749306817346 305.104089299289 525.1239178854573C277.1700009270602 496.97290508918013 285.5697130761946 489.3300967070976 266.09859084145455 429.74121412085674C246.6274686067145 370.1523315346159 183.4197553287541 266.9586896110464 211.64270257253645 239.09728147150093C239.8656498163188 211.23587333195547 322.25420669475847 295.39290471527687 401.56873761160955 296.00645505103796C480.8832685284606 296.6200053867991 572.7909325480921 194.20725903017387 592.3524509734211 242.04232308315454C611.9139693987502 289.87738713613516 535.4994918751202 458.3598140762126 495.4640260531892 525.6147625053445 "></path><path d="M583.9893022579497 248.9100455127932C602.7003198821775 294.665324172166 529.6082109465314 455.8224282018052 491.3134175516409 520.1532484383661C453.0186241567503 584.4840686749271 438.1083393301009 557.7957958877555 400.174293962476 557.6979826482852C362.240248594851 557.6001694088151 335.9495625778682 546.6108006070872 309.2299997870407 519.6837448889089C282.5104369962131 492.7566891707306 290.5449442692982 485.4461768052605 271.9203925665034 428.4481152010301C253.29584086370858 371.4500535967997 192.83628903261604 272.7430917568637 219.83215161362523 246.09304918860278C246.82801419463442 219.44300662034192 325.63445990444626 299.94103663917105 401.50053295534724 300.5279108733774C477.3666060062483 301.11478510758366 565.2782846337218 203.15476685342043 583.9893022579497 248.9100455127932C602.7003198821775 294.665324172166 529.6082109465314 455.8224282018052 491.3134175516409 520.1532484383661 "></path><path d="M575.6261535424783 255.77776794243186C593.4866703656048 299.45326120819675 523.7169300179426 453.28504232739795 487.1628090500925 514.6917343713878C450.60868808224245 576.0984264153778 436.3761434749862 550.6232569367141 400.16637289679875 550.5298897535833C363.9566023186113 550.4365225704528 338.8609474842187 539.9466705324398 313.3559102747924 514.2435718923605C287.8508730653661 488.54047325228134 295.5201754624018 481.5622569034234 277.74219429155227 427.1550162812034C259.96421312070265 372.7477756589835 202.25282273647792 278.52749390268093 228.021600654714 253.08881690570468C253.7903785729501 227.65013990872836 329.0147131141341 304.4891685630653 401.43232829908504 305.04936669571674C473.849943484036 305.6095648283682 557.7656367193517 212.10227467666692 575.6261535424783 255.77776794243186C593.4866703656048 299.45326120819675 523.7169300179426 453.28504232739795 487.1628090500925 514.6917343713878 "></path><path d="M567.2630048270069 262.6455056308596C584.2730208490322 304.24121350301664 517.8256490893538 450.7476717117796 483.01220054854423 509.2302355631987C448.1987520077347 567.7127994146176 434.6439476198716 543.4507332444617 400.1584518311216 543.3618121176705C365.67295604237165 543.2728909908794 341.7723323905691 533.2825557165813 317.4818207625441 508.8034141546011C293.19130913451903 484.3242725926209 300.49540665550546 477.6783522603753 283.5639960166011 425.8619326201658C266.6325853776967 374.0455129799564 211.66935644033987 284.3119113072873 236.21104969580279 260.0845998815956C260.7527429512657 235.85728845590387 332.3949663238219 309.0373157457486 401.36412364282273 309.57083777684517C470.3332809618237 310.1043598079418 550.2529888049816 221.04979775870248 567.2630048270069 262.6455056308596C584.2730208490322 304.24121350301664 517.8256490893538 450.7476717117796 483.01220054854423 509.2302355631987 "></path><path d="M558.8998561115354 269.5132585780764C575.0593713324595 309.0291810566256 511.93436816076496 448.21031635495046 478.86159204699595 503.76875201379846C445.78881593322683 559.3271876726466 432.9117517647569 536.2782248109984 400.1505307654444 536.1937497405469C367.389309766132 536.1092746700953 344.68371729691955 526.6184561595121 321.6077312502958 503.3632716756309C298.531745203672 480.10808719174975 305.4706378486091 473.7944628761163 289.38579774165 424.5688642179173C273.3009576346908 375.34326555971836 221.08589014420176 290.0963439706827 244.4004987368915 267.08039811627555C267.7151073295813 244.06445226186844 335.7752195335097 313.58547818722093 401.29591898656054 314.0923241167627C466.8166184396114 314.5991700463045 542.7403408906114 229.99733609952716 558.8998561115354 269.5132585780764C575.0593713324595 309.0291810566256 511.93436816076496 448.21031635495046 478.86159204699595 503.76875201379846 "></path><path d="M550.5367226548531 276.380965748926C565.8457370746758 313.81710283386735 506.04310249096534 445.672915221754 474.71099880423674 498.30722268803106C443.37889511750814 550.9415301543082 431.17957116843127 529.105670601168 400.1426249585563 529.0256415870558C369.1056787486814 528.9456125729439 347.5951174620591 519.9543108260756 325.73365699683654 497.9230834202933C303.872196531614 475.8918560145112 310.4458843005018 469.91052771549005 295.2076147254879 423.27575003930156C279.96934515047394 376.6409723631131 230.50243910685276 295.8807308577109 252.58996303676935 274.0761505745884C274.677486966686 252.27157029146582 339.15548800198655 318.13359485232604 401.2277295890874 318.613764680313C463.29997117618814 319.0939345083 535.2277082350303 238.9448286639846 550.5367226548531 276.380965748926C565.8457370746758 313.81710283386735 506.04310249096534 445.672915221754 474.71099880423674 498.30722268803106 "></path><path d="M542.1735281630145 283.2486729197756C556.6320417817359 318.60502461110906 500.15177578600924 443.13551408855756 470.56034452632116 492.8456933622638C440.9689132666331 542.55587263597 429.4473295369494 521.9331163913374 400.13465811651196 521.8575334335649C370.8219866960745 521.7819504757924 350.50645659204235 513.2901654926391 329.85952170822105 492.48289516495583C309.2125868243998 471.6756248372727 315.42106971723825 466.0265925548639 301.0293706741695 421.98263586068595C286.63767163110083 377.9386791665079 239.91892703434746 301.6651177447391 260.77936630149094 281.07190303290116C281.6398055686344 260.4786883210632 342.5356954353072 322.6817115174312 401.15947915645796 323.1352052438633C459.78326287760876 323.58869897029547 527.7150145442929 247.89232122844203 542.1735281630145 283.2486729197756C556.6320417817359 318.60502461110906 500.15177578600924 443.13551408855756 470.56034452632116 492.8456933622638 "></path><path d="M533.8104099651212 290.11638009062517C547.4184227827413 323.3929463883508 494.2605253749987 440.5981129553612 466.409766542351 487.3841640364965C438.55900770970334 534.1702151176316 427.7151641994128 514.7605621815069 400.1267675684129 514.689425280074C372.53837093741294 514.6182883786411 353.41787201597094 506.62602015920265 333.9854627135509 487.04270690961846C314.55305341113086 467.45939366003427 320.39633142792 462.14265739423774 306.8512029167965 420.68952168207016C293.30607440567303 379.23638596990264 249.33549125578753 307.44950463176735 268.96884586015784 288.06765549121394C288.60220046452815 268.6858063506606 345.91597916257314 327.2298281825364 401.09130501777383 327.65664580741367C456.2666308729746 328.08346343229096 520.2023971475008 256.8398137928995 533.8104099651212 290.11638009062517C547.4184227827413 323.3929463883508 494.2605253749987 440.5981129553612 466.409766542351 487.3841640364965 "></path><path d="M525.4472612496497 296.98410252026383C538.2047732661686 328.18088342438165 488.3692444464099 438.0607270809538 462.25915804080273 481.92264996951815C436.1490716351956 525.7845728580824 425.98296834429823 507.5880232304654 400.1188465027357 507.52133238537215C374.25472466117327 507.45464154027877 356.3292569223214 499.9618900845552 338.1113732013026 481.60253391307003C319.89348948028385 463.2431777415849 325.37156262102366 458.25873749240066 312.67300464184535 419.39642276224356C299.9744466626671 380.53410803208646 258.7520249596494 313.2339067775846 277.1582949012466 295.06342320831584C295.56456484284377 276.89293963904703 349.29623237226093 331.77796010643056 401.02310036151164 332.17810162975303C452.7499683507623 332.5782431530755 512.6897492331307 265.787321616146 525.4472612496497 296.98410252026383C538.2047732661686 328.18088342438165 488.3692444464099 438.0607270809538 462.25915804080273 481.92264996951815 "></path><path d="M517.0841125341783 303.8518249499025C528.991123749596 332.9688204604124 482.4779635178211 435.52334120654655 458.10854953925445 476.4611359025398C433.7391355606877 517.3989305985332 424.25077248918353 500.41548427942405 400.11092543705854 500.35323949067015C375.9710783849336 500.29099470191636 359.2406418286718 493.29776000990773 342.2372836890543 476.1623609165216C325.2339255494368 459.0269618231355 330.3467938141273 454.37481759056345 318.4948063668942 418.1033238424169C306.6428189196612 381.8318300942703 268.1685586635113 319.0183089234019 285.3477439423354 302.0591909254177C302.52692922115943 285.1000729274335 352.6764855819488 336.3260920303248 400.9548957052494 336.6995574520924C449.2333058285501 337.07302287386005 505.1771013187605 274.7348294393925 517.0841125341783 303.8518249499025C528.991123749596 332.9688204604124 482.4779635178211 435.52334120654655 458.10854953925445 476.4611359025398 "></path><path d="M508.72096381870676 310.71959315590834C519.7774742330232 337.75680327281043 476.5866825892323 432.98600110850634 453.95794103770606 470.99966761192877C431.3291994861799 509.0133341153511 422.51857663406884 493.24299110474976 400.1030043713814 493.18519237233545C377.6874321086939 493.12739363992125 362.1520267350223 486.6336757116276 346.363194176806 470.72223369634037C330.5743616185897 454.8107916810532 335.3220250072309 450.49094346509355 324.31660809194307 416.8102706989574C313.3111911766552 383.1295979328213 277.58509236737325 324.8027568455864 293.5371929834241 309.0550044188867C309.48929359947505 293.3072519921871 356.0567387916366 340.87426973058615 400.88669104898713 341.221059050799C445.7166433063378 341.5678483710118 497.6644534043903 283.68238303900625 508.72096381870676 310.71959315590834C519.7774742330232 337.75680327281043 476.5866825892323 432.98600110850634 453.95794103770606 470.99966761192877 "></path><path d="M500.35781510323534 317.587315585547C510.56382471645054 342.54474030884126 470.6954016606435 430.448615234099 449.8073325361578 465.53815354495043C428.9192634116721 500.6276918558019 420.7863807789542 486.0704521537083 400.0950833057042 486.01709947763356C379.4037858324542 485.96374680155895 365.06341164137274 479.9695456369801 350.4891046645577 465.28206069979194C335.9147976877427 450.59457576260377 340.2972562003345 446.60702356325646 330.1384098169919 415.51717177913076C319.9795634336493 384.4273199950051 287.00162607123514 330.5871589914036 301.7266420245129 316.0507721359886C316.45165797779066 301.51438528057355 359.43699200132437 345.4224016544804 400.81848639272494 345.74251487313836C442.1999807841255 346.06262809179634 490.15180549002014 292.62989086225275 500.35781510323534 317.587315585547C510.56382471645054 342.54474030884126 470.6954016606435 430.448615234099 449.8073325361578 465.53815354495043 "></path><path d="M491.9946358701858 324.45503801518566C501.35014468229974 347.332677344872 464.8040902144767 427.9112293596917 445.6566935170314 460.0766394779721C426.5092968195861 492.2420495962526 419.0541544062614 478.8979132026668 400.08713172244893 478.8490065829317C381.12010903863643 478.80009996319654 367.9747660301451 473.30541556233266 354.6149846347313 459.8418877032435C341.2552032393175 446.3783598441544 345.27245687586003 442.7231036614193 335.96018102446266 414.2240728593041C326.6479051730652 385.72504205718894 296.41812925751896 336.3715611372209 309.91606054802355 323.04653985309045C323.41399183852815 309.72151856896 362.8172146934341 349.9705335783746 400.75025121888456 350.2639706954777C438.6832877443351 350.5574078125809 482.63912705807184 301.57739868549925 491.9946358701858 324.45503801518566C501.35014468229974 347.332677344872 464.8040902144767 427.9112293596917 445.6566935170314 460.0766394779721 "></path><path d="M483.63148715471436 331.32274518603526C492.13649516572696 352.1205991221138 458.9128092858878 425.3738282264953 441.50608501548305 454.6151101522048C424.0993607450783 483.8563920779143 417.32195855114674 471.72535899283633 400.07921065677175 471.68089842944073C382.83646276239676 471.6364378660452 370.8861509364955 466.64127022889613 358.740895122483 454.401699447906C346.5956393084705 442.1621286669159 350.24768806896367 438.8391685007931 341.7819827495115 412.9309586806884C333.3162774300593 387.02274886058365 305.83466296138084 342.1559480242491 318.10550958911233 330.04229231140323C330.37635621684376 317.9286365985574 366.1974679031219 354.5186502434797 400.6820465626223 354.7854112590281C435.1666252221228 355.0521722745764 475.1264791437018 310.52489124995674 483.63148715471436 331.32274518603526C492.13649516572696 352.1205991221138 458.9128092858878 425.3738282264953 441.50608501548305 454.6151101522048 "></path><path d="M475.268353698032 338.190482874463C482.92286090794335 356.9085514169337 453.02154361608814 422.836457610877 437.35549177272384 449.15361134401553C421.68943992935954 475.4707650771541 415.5897779548211 464.552835300584 400.07130484988363 464.5128207935279C384.55283174494616 464.47280628647195 373.797551101635 459.9771554130378 362.86682086902374 448.96154171014666C351.9360906364125 437.9459280072556 355.22293452085637 434.955263857745 347.60379973334943 411.6378750196508C339.98466494584244 388.32048618155653 315.25121192403185 347.94036542885544 326.29497388899017 337.0380752872942C337.3387358539485 326.13578514573294 369.57773637159875 359.066797426163 400.61385716514917 359.3068823401565C431.64997795869954 359.54696725415 467.6138464881206 319.4724143319923 475.268353698032 338.190482874463C482.92286090794335 356.9085514169337 453.02154361608814 422.836457610877 437.35549177272384 449.15361134401553 "></path><path d="M466.9052049825606 345.0581900453126C473.7092113913707 361.6964731941754 447.13026268749934 420.2990564776806 433.2048832711755 443.69208201824824C419.27950385485167 467.0851075588158 413.8575820997064 457.38028109075344 400.06338378420645 457.344712640037C386.2691854687065 457.30914418932053 376.70893600798547 453.3130100796013 366.99273135677544 443.52135345480923C357.2765267055654 433.72969683001713 360.19816571396 431.0713286971189 353.42560145839826 410.34476084103505C346.6530372028365 389.6181929849513 324.66774562789374 353.7247523158837 334.4844229300789 344.03382774560697C344.3011002322641 334.3429031753303 372.9579895812866 363.6149140912682 400.5456525088869 363.8283229037068C428.1333154364873 364.0417317161455 460.1011985737504 328.41990689644973 466.9052049825606 345.0581900453126C473.7092113913707 361.6964731941754 447.13026268749934 420.2990564776806 433.2048832711755 443.69208201824824 "></path><path d="M458.54205626708915 351.9259277337403C464.495561874798 366.48442548899527 441.23898175891054 417.76168586206234 429.0542747696272 438.23058321005897C416.86956778034386 458.69948055805565 412.12538624459177 450.2077573985011 400.05546271852927 450.17663500412414C387.9855391924668 450.14551260974724 379.62032091433593 446.64889526374293 371.11864184452713 438.08119571704987C362.6169627747184 429.5134961703568 365.17339690706365 427.1874240540708 359.2474031834471 409.0516771799975C353.3214094598306 390.9159303059242 334.0842793317557 359.50916972049 342.67387197116767 351.02961072149793C351.2634646105797 342.5500517225058 376.3382427909744 368.1630612739514 400.4774478526247 368.3497939848353C424.61665291427505 368.5365266957191 452.58855065938025 337.36742997848535 458.54205626708915 351.9259277337403C464.495561874798 366.48442548899527 441.23898175891054 417.76168586206234 429.0542747696272 438.23058321005897 "></path><path d="M450.1788922928286 358.79365016337897C455.2818970994362 371.2723625250261 435.3476855715327 415.22429998765494 424.90365100928983 432.7690691430807C414.459616447047 450.3138382985064 410.393175130688 443.0352184474596 400.047526394063 443.00854210942225C389.70187765743805 442.98186577138495 382.5316905618973 439.9847651890955 375.24453707348977 432.64102272050144C367.95738358508225 425.29728025190735 370.1486128413782 423.3035041522337 365.0691896497069 407.75857826017085C359.9897664580356 392.213652368108 343.5007977768285 365.2935718663073 350.8633057534674 358.0253784385998C358.22581373010627 350.7571850108923 379.7184807418731 372.71119319784566 400.4092279375734 372.87124980717465C421.0999751332737 373.03130641650364 445.075887486221 346.31493780173184 450.1788922928286 358.79365016337897C455.2818970994362 371.2723625250261 435.3476855715327 415.22429998765494 424.90365100928983 432.7690691430807 "></path><path d="M441.8157435773572 365.66137259301763C446.0682475828635 376.0602995610569 429.4564046429439 412.6869141132476 420.75304250774155 427.3075550761024C412.0496803725391 441.92819603895714 408.66097927557337 435.8626794964182 400.03960532838585 435.84044921472037C391.4182313811984 435.8182189330226 385.44307546824774 433.32063511444807 379.37044756124146 427.200849723953C373.29781965423524 421.08106433345796 375.12384403448186 419.41958425039655 370.89099137475574 406.4654793403442C366.6581387150297 393.5113744302918 352.91733148069045 371.07797401212457 359.05275479455617 365.0211461557016C365.1881781084219 358.9643182992787 383.0987339515609 377.2593251217399 400.34102328131115 377.392705629514C417.5833126110614 377.5260861372882 437.5632395718509 355.26244562497834 441.8157435773572 365.66137259301763C446.0682475828635 376.0602995610569 429.4564046429439 412.6869141132476 420.75304250774155 427.3075550761024 "></path><path d="M433.45259486188576 372.5290950226563C436.8545980662908 380.8482365970877 423.56512371435514 410.1495282388403 416.6024340061932 421.8460410091241C409.6397442980313 433.5425537794079 406.92878342045867 428.6901405453767 400.0316842627087 428.6723563200185C393.1345851049587 428.65457209466024 388.3544603745982 426.65650503980066 383.4963580489932 421.7606767274046C378.63825572338817 416.86484841500857 380.09907522758544 415.5356643485594 376.71279309980457 405.1723804205175C373.3265109720237 394.80909649247565 362.33386518455234 376.8623761579418 367.24220383564494 372.0169138728035C372.1505424867375 367.17145158766516 386.47898716124877 381.80745704563407 400.27281862504896 381.91416145185343C414.06665008884914 382.02086585807274 430.0505916574807 364.2099534482249 433.45259486188576 372.5290950226563C436.8545980662908 380.8482365970877 423.56512371435514 410.1495282388403 416.6024340061932 421.8460410091241 "></path><path d="M425.0894461464143 379.396832711084C427.6409485497181 385.6361888919076 417.67384278576634 407.612157623222 412.45182550464494 416.3845422009349C407.2298082235235 425.15692677864774 405.19658756534403 421.5176168531243 400.02376319703154 421.50427868410566C394.85093882871905 421.490940515087 391.26584528094867 419.99239022394227 387.6222685367449 416.3205189896453C383.97869179254116 412.64864775534824 385.0743064206891 411.6517597055114 382.53459482485346 403.87929675948C379.9948832290178 396.10683381344853 371.7503988884143 382.64679356254817 375.4316528767337 379.0126968486944C379.1129068650531 375.37860013484067 389.85924037093656 386.35560422831736 400.2046139687867 386.43563253298186C410.54998756663684 386.51566083764635 422.53794374311053 373.15747653026045 425.0894461464143 379.396832711084C427.6409485497181 385.6361888919076 417.67384278576634 407.612157623222 412.45182550464494 416.3845422009349 "></path><path d="M416.72629743094285 386.2645551407227C418.4272990331454 390.4241259279384 411.78256185717754 405.07477174881467 408.3012170030966 410.92302813395656C404.8198721490157 416.77128451909846 403.46439171022934 414.3450779020829 400.01584213135436 414.33618578940377C396.56729255247933 414.32729367672465 394.1772301872991 413.32826014929486 391.7481790244966 410.88034599309685C389.3191278616941 408.4324318368988 390.0495376137927 407.76783980367424 388.3563965499023 402.5861978396533C386.66325548601185 397.40455587563235 381.16693259227617 388.43119570836546 383.62110191782244 386.00846456579626C386.0752712433688 383.5857334232271 393.23949358062436 390.9037361522116 400.13640931252445 390.9570883553212C407.03332504442454 391.0104405584309 415.02529582874035 382.10498435350695 416.72629743094285 386.2645551407227C418.4272990331454 390.4241259279384 411.78256185717754 405.07477174881467 408.3012170030966 410.92302813395656 "></path><path d="M408.3631487154714 393.13227757036134C409.2136495165727 395.2120629639692 405.8912809285888 402.53738587440733 404.15060850154833 405.4615140669783C402.4099360745078 408.38564225954923 401.7321958551147 407.1725389510415 400.0079210656772 407.1680928947019C398.28364627623966 407.16364683836235 397.08861509364954 406.6641300746474 395.8740895122483 405.4401729965484C394.65956393084707 404.2162159184494 395.02476880689636 403.88391990183715 394.17819827495117 401.29309891982666C393.3316277430059 398.7022779378162 390.5834662961381 394.2155978541827 391.8105509589112 393.00423228289816C393.0376356216844 391.79286671161356 396.6197467903122 395.45186807610577 400.06820465626225 395.47854417766064C403.5166625222123 395.50522027921545 407.5126479143702 391.0524921767535 408.3631487154714 393.13227757036134C409.2136495165727 395.2120629639692 405.8912809285888 402.53738587440733 404.15060850154833 405.4615140669783 "></path></g></svg>