<?xml version="1.0" encoding="UTF-8" standalone="no" ?>
<!DOCTYPE svg PUBLIC "-//W3C//DTD SVG 1.1//EN" "http://www.w3.org/Graphics/SVG/1.1/DTD/svg11.dtd">
<svg xmlns="http://www.w3.org/2000/svg" xmlns:xlink="http://www.w3.org/1999/xlink" version="1.1" width="1080" height="1080" viewBox="0 0 1080 1080" xml:space="preserve">
<desc>Created with Fabric.js 5.2.4</desc>
<defs>
</defs>
<g transform="matrix(1 0 0 1 540 540)" id="b8debbba-3fdd-4940-ba32-08e40891d74a"  >
<rect style="stroke: none; stroke-width: 1; stroke-dasharray: none; stroke-linecap: butt; stroke-dashoffset: 0; stroke-linejoin: miter; stroke-miterlimit: 4; fill: rgb(255,255,255); fill-rule: nonzero; opacity: 1; visibility: hidden;" vector-effect="non-scaling-stroke"  x="-540" y="-540" rx="0" ry="0" width="1080" height="1080" />
</g>
<g transform="matrix(1 0 0 1 540 540)" id="872943f6-a49e-425d-9b85-48ddaf73cdc1"  >
</g>
<g transform="matrix(NaN NaN NaN NaN 0 0)"  >
<g style=""   >
</g>
</g>
<g transform="matrix(0.75 0 0 1.09 540 736.21)"  >
<path style="stroke: none; stroke-width: 1; stroke-dasharray: none; stroke-linecap: butt; stroke-dashoffset: 0; stroke-linejoin: miter; stroke-miterlimit: 4; fill: rgb(124,153,191); fill-rule: nonzero; opacity: 1;"  transform=" translate(-720, -176)" d="M 0 64 L 48 53.3 C 96 43 192 21 288 58.7 C 384 96 480 192 576 197.3 C 672 203 768 117 864 117.3 C 960 117 1056 203 1152 202.7 C 1248 203 1344 117 1392 74.7 L 1440 32 L 1440 320 L 1392 320 C 1344 320 1248 320 1152 320 C 1056 320 960 320 864 320 C 768 320 672 320 576 320 C 480 320 384 320 288 320 C 192 320 96 320 48 320 L 0 320 Z" stroke-linecap="round" />
</g>
<g transform="matrix(16.31 0 0 2.84 544.31 990.73)" id="14c217ee-944d-4346-b0fe-336e11a6ba14"  >
<rect style="stroke: rgb(124,153,191); stroke-width: 8; stroke-dasharray: none; stroke-linecap: butt; stroke-dashoffset: 0; stroke-linejoin: miter; stroke-miterlimit: 4; fill: rgb(124,153,191); fill-rule: nonzero; opacity: 1;" vector-effect="non-scaling-stroke"  x="-33.0835" y="-33.0835" rx="0" ry="0" width="66.167" height="66.167" />
</g>
</svg>